<?xml version="1.0" encoding="UTF-8"?> <!-- Generator: Adobe Illustrator 24.2.3, SVG Export Plug-In . SVG Version: 6.00 Build 0) --> <svg xmlns="http://www.w3.org/2000/svg" xmlns:xlink="http://www.w3.org/1999/xlink" version="1.1" id="Capa_1" x="0px" y="0px" width="300px" height="300px" viewBox="0 0 300 300" style="enable-background:new 0 0 300 300;" xml:space="preserve"> <style type="text/css"> .st0{fill-rule:evenodd;clip-rule:evenodd;fill:#009BDB;} </style> <g> <path class="st0" d="M172.6,209.2L172.6,209.2c-11.2-27.3-44.2-42.4-71.7-47.4c-17.1-3.1-31.7-1.9-39.7-1.7 c-32.7,3-50.6,10-50.6,10c-50-78.5,91-99.9,138.8-99.9c3.5,0,7.6,0.3,10.5,1.3l-11.8,5l-8.8,5.5l-6.2,5.6l-4.2,5.7l-1.6,3.5 l-1.1,3.4l-0.2,4.3l0.9,4.6l3.1,6l4,4.9l6.1,5.2l3.8,2.8l4.8,2.9l6.7,3.1l8.2,3l12.2,3.7l9.8,2l13.6,1.7l14.6,0.4l19.3-0.8l22.8-3 l14.5-4.7l7.6-2.7l9-4.7l8.7-5.5c2.4,5.2,4.1,10.9,4.1,16.3c0.4,17.6-13.4,33.8-36.4,46.2C240.7,198.2,208.6,206.8,172.6,209.2z"></path> <path class="st0" d="M87.1,178c30.2,0,54.8,11.7,54.8,26s-24.6,26-54.8,26s-54.8-11.7-54.8-26C32.2,189.6,56.9,178,87.1,178z"></path> </g> </svg> 